<?xml version="1.0" standalone="no"?><!DOCTYPE svg PUBLIC "-//W3C//DTD SVG 1.1//EN" "http://www.w3.org/Graphics/SVG/1.1/DTD/svg11.dtd"><svg t="1677149338059" class="icon" viewBox="0 0 1024 1024" version="1.1" xmlns="http://www.w3.org/2000/svg" p-id="4383" xmlns:xlink="http://www.w3.org/1999/xlink" width="200" height="200"><path d="M612.3 923.4l-101.72 41.08c-29.75 5.95-56.1-20.4-50.15-50.15l41.37-101.72c4.25-10.48 10.48-20.12 18.7-28.05L878.06 427V58.67C878.06 27.5 852.56 2 821.4 2h-680c-31.17 0-56.67 25.5-56.67 56.67v906.67c0 31.17 25.5 56.67 56.67 56.67h680c31.17 0 56.67-25.5 56.67-56.67V667.27L640.63 904.7c-8.22 7.93-17.85 14.45-28.33 18.7zM254.73 179.93h453.33c15.58 0 28.33 12.75 28.33 28.33s-12.75 28.33-28.33 28.33H254.73c-15.58 0-28.33-12.75-28.33-28.33s12.75-28.33 28.33-28.33z m0 144.79h453.33c15.58 0 28.33 12.47 28.33 28.33 0 15.58-12.75 28.33-28.33 28.33H254.73c-15.58 0-28.33-12.75-28.33-28.33 0-15.87 12.75-28.33 28.33-28.33z m0 144.5h340c15.58 0 28.33 12.75 28.33 28.33 0 15.87-12.75 28.33-28.33 28.33h-340c-15.58 0-28.33-12.47-28.33-28.33 0-15.58 12.75-28.33 28.33-28.33zM226.4 642.33c0-15.58 12.75-28.33 28.33-28.33H481.4c15.58 0 28.33 12.75 28.33 28.33s-12.75 28.33-28.33 28.33H254.73c-15.58 0.01-28.33-12.74-28.33-28.33z" p-id="4384"></path><path d="M520.29 881.21c-2.61 14.63 10.42 27.65 25.04 25.04l49.49-19.43c5.21-2 9.82-5.01 13.82-9.02l21.64-21.64-60.1-60.1-21.64 21.64c-4.01 4.01-7.01 8.62-9.02 13.82l-19.23 49.69zM590.21 776.041L822.011 544.24l60.104 60.103-231.802 231.802zM926.8 499.55c-16.63-16.63-43.48-16.63-60.1 0l-24.64 24.64 60.1 60.1 24.64-24.64c16.63-16.63 16.63-43.47 0-60.1z" p-id="4385"></path></svg>